/* XPM */
static char *backslash_xpm[] = {
"16 16 15 1",
" 	c None",
"1	c #2D2D2D",
"2	c #DCDCDC",
"3	c #A4A4A4",
"4	c #3F3F3F",
"5	c #A6A6A6",
"6	c #D1D1D1",
"7	c #525252",
"8	c #414141",
"9	c #D3D3D3",
"A	c #CECECE",
"B	c #575757",
"C	c #505050",
"D	c #A2A2A2",
"E	c #3D3D3D",
"1111111111111111",
"1111111111111111",
"1111111111111111",
"1111111111111111",
"1111111114321111",
"1111111176231111",
"1111111CA2641111",
"111111CA2A711111",
"11111B92AC111111",
"1111892AC1111111",
"111152AC11111111",
"11112DE111111111",
"1111111111111111",
"1111111111111111",
"1111111111111111",
"1111111111111111"
};
