/* XPM */
static char *hide_xpm[] = {
"16 16 3 1",
" 	c None",
"1	c #2D2D2D",
"2	c #008EE0",
"1111111111111111",
"1111111111111111",
"1111111111111111",
"1111111111111111",
"1111111111111111",
"1111111111111111",
"1111111111111111",
"1111111111111111",
"1111111111111111",
"1111111111111111",
"1111222222221111",
"1111222222221111",
"1111111111111111",
"1111111111111111",
"1111111111111111",
"1111111111111111"
};
